# xmcd
#
# Track frame offsets: 
#        150
#        18112
#        35882
#        54922
#        74855
#        94517
#        113290
#        133207
#        152482
#        172530
#        191640
#        210610
#        229817
#
# Disc length: 3300 seconds
#
# Revision: 0
# Processed by: cddbd v1.5.2PL0 Copyright (c) Steve Scherf et al.
# Submitted via: ExactAudioCopy v0.99pb4
#
DISCID=a40ce20d
DTITLE=Ji Seo Ryeon (지서련) - 울고 싶어지는 오후
DYEAR=2002
DGENRE=Ballad
TTITLE0=Lost In Love
TTITLE1=울고 싶어지는 오후
TTITLE2=심연
TTITLE3=Purple Rain
TTITLE4=Blue
TTITLE5=蓮花(연화)
TTITLE6=애천가
TTITLE7=천국보다 아름다운
TTITLE8=다가올 그 어떤 날에는
TTITLE9=이루지 못할 노래
TTITLE10=미련
TTITLE11=Love Letter
TTITLE12=울고 싶어지는 오후 (Instrumental)
EXTD=
EXTT0=
EXTT1=
EXTT2=
EXTT3=
EXTT4=
EXTT5=
EXTT6=
EXTT7=
EXTT8=
EXTT9=
EXTT10=
EXTT11=
EXTT12=
PLAYORDER=
